<?xml version="1.0" encoding="UTF-8"?>
<svg version="1.1" xmlns="http://www.w3.org/2000/svg" width="256" height="256">
<path d="M0 0 C2.49813766 2.20675302 4.91681813 4.47612457 7.32421875 6.78125 C8.13375 7.51601563 8.94328125 8.25078125 9.77734375 9.0078125 C31.50089405 29.43341482 44.57943037 60.87798697 45.52734375 90.48828125 C45.8026371 108.42443194 43.3778207 124.89297308 37.32421875 141.78125 C36.96714844 142.80347656 36.61007813 143.82570312 36.2421875 144.87890625 C27.1092726 168.85684185 8.56840794 188.92904477 -12.67578125 202.78125 C-13.64 203.41804687 -14.60421875 204.05484375 -15.59765625 204.7109375 C-42.15495269 221.2175444 -76.19663634 225.93675102 -106.55126953 219.28613281 C-139.59165498 211.43420026 -168.52100189 191.88960608 -186.46923828 162.8046875 C-203.63760689 134.01240926 -209.92104699 99.58451746 -201.67578125 66.78125 C-195.70035379 44.39157046 -184.73368602 25.41760955 -168.67578125 8.78125 C-167.58136719 7.59208984 -167.58136719 7.59208984 -166.46484375 6.37890625 C-123.40897619 -39.15787562 -46.86316216 -38.85879724 0 0 Z " fill="#000000" transform="translate(207.67578125,31.21875)"/>
<path d="M0 0 C4.12606661 5.59687269 4.75131007 9.94516866 4.36328125 16.9296875 C3.55078125 19.5546875 3.55078125 19.5546875 1.921875 20.7109375 C-1.20772412 21.82460045 -3.88591813 21.74595351 -7.19921875 21.6796875 C-8.3696875 21.66164063 -9.54015625 21.64359375 -10.74609375 21.625 C-11.638125 21.60179688 -12.53015625 21.57859375 -13.44921875 21.5546875 C-13.77921875 19.9046875 -14.10921875 18.2546875 -14.44921875 16.5546875 C-26.32921875 16.2246875 -38.20921875 15.8946875 -50.44921875 15.5546875 C-50.77921875 17.8646875 -51.10921875 20.1746875 -51.44921875 22.5546875 C-50.29921387 22.53374023 -49.14920898 22.51279297 -47.96435547 22.49121094 C-43.68176819 22.41859687 -39.39923492 22.37281021 -35.11621094 22.33496094 C-33.26553179 22.31489411 -31.41491566 22.28763405 -29.56445312 22.25292969 C-26.89827898 22.20419317 -24.23294588 22.18166963 -21.56640625 22.1640625 C-20.74429657 22.14341736 -19.92218689 22.12277222 -19.07516479 22.10150146 C-13.70791543 22.09942347 -10.72126041 23.01164921 -6.44921875 26.5546875 C-4.5859375 28.73828125 -4.5859375 28.73828125 -3.13671875 30.9921875 C-2.40001953 32.10400391 -2.40001953 32.10400391 -1.6484375 33.23828125 C-0.37838258 35.69151438 0.14293109 37.83408704 0.55078125 40.5546875 C1.31777344 39.71550781 2.08476562 38.87632813 2.875 38.01171875 C11.1111517 29.0664273 19.60730702 20.41688345 28.2644043 11.87817383 C29.12203369 11.02892334 29.97966309 10.17967285 30.86328125 9.3046875 C31.67909668 8.49717041 32.49491211 7.68965332 33.33544922 6.85766602 C35.31048791 4.8044877 37.05917883 2.70089532 38.80859375 0.45703125 C41.55078125 -2.4453125 41.55078125 -2.4453125 44.54296875 -3.12890625 C45.96996094 -3.00708984 45.96996094 -3.00708984 47.42578125 -2.8828125 C48.87597656 -2.78806641 48.87597656 -2.78806641 50.35546875 -2.69140625 C51.07992187 -2.61019531 51.804375 -2.52898438 52.55078125 -2.4453125 C52.55078125 -1.1253125 52.55078125 0.1946875 52.55078125 1.5546875 C53.54078125 1.5546875 54.53078125 1.5546875 55.55078125 1.5546875 C55.55078125 2.5446875 55.55078125 3.5346875 55.55078125 4.5546875 C56.87078125 4.5546875 58.19078125 4.5546875 59.55078125 4.5546875 C59.45446411 5.45912598 59.45446411 5.45912598 59.35620117 6.38183594 C58.89829567 10.79987856 58.50744327 15.19614385 58.2890625 19.6328125 C57.49449252 30.88242025 55.42431399 37.49178586 46.88354492 45.06787109 C45.65543943 46.11408798 44.41888918 47.15049878 43.17285156 48.17529297 C41.1173501 49.92327359 39.39528041 51.854292 37.67578125 53.9296875 C35.36183275 56.687853 32.91151152 59.24620143 30.35546875 61.78125 C29.64116699 62.49104004 28.92686523 63.20083008 28.19091797 63.93212891 C27.37905029 64.73529541 27.37905029 64.73529541 26.55078125 65.5546875 C27.39785645 65.5640332 28.24493164 65.57337891 29.11767578 65.58300781 C32.28272477 65.62721362 35.44682937 65.68891277 38.61132812 65.76220703 C39.97676289 65.79030373 41.34235689 65.81157427 42.70800781 65.82568359 C44.67932163 65.84726732 46.65027756 65.8960421 48.62109375 65.9453125 C49.80461426 65.96625977 50.98813477 65.98720703 52.20751953 66.00878906 C57.47177815 66.868354 60.5828209 69.62974761 64.36328125 73.2421875 C67.09614913 77.38053029 67.43178049 80.68647445 67.55078125 85.5546875 C66.89078125 84.8946875 66.23078125 84.2346875 65.55078125 83.5546875 C62.85822228 98.97706692 60.19874492 114.39835922 57.80761719 129.87084961 C57.65583008 130.84159424 57.50404297 131.81233887 57.34765625 132.8125 C57.21713867 133.6595752 57.08662109 134.50665039 56.95214844 135.37939453 C56.55078125 137.5546875 56.55078125 137.5546875 55.55078125 140.5546875 C56.21078125 140.8846875 56.87078125 141.2146875 57.55078125 141.5546875 C53.81399695 144.04587703 51.80626306 143.7612101 47.36328125 143.6796875 C46.09097656 143.66164062 44.81867188 143.64359375 43.5078125 143.625 C42.53199219 143.60179687 41.55617188 143.57859375 40.55078125 143.5546875 C39.42738408 137.55872427 39.55903505 132.63703526 41.03125 126.69140625 C41.31250732 125.53729248 41.59376465 124.38317871 41.88354492 123.1940918 C42.2138269 121.88758667 42.2138269 121.88758667 42.55078125 120.5546875 C41.44041504 120.59021729 40.33004883 120.62574707 39.18603516 120.66235352 C35.07502259 120.7925088 30.9638269 120.91574399 26.85253906 121.03686523 C25.07155668 121.0903077 23.29062994 121.14563879 21.50976562 121.20288086 C18.95324708 121.28472931 16.3966068 121.3598328 13.83984375 121.43359375 C13.04083649 121.46062881 12.24182922 121.48766388 11.41860962 121.51551819 C5.77852466 121.66855921 5.77852466 121.66855921 3.55078125 120.5546875 C3.36515625 122.50375 3.36515625 122.50375 3.17578125 124.4921875 C1.92197027 135.81230945 1.92197027 135.81230945 -0.44921875 140.5546875 C0.21078125 140.5546875 0.87078125 140.5546875 1.55078125 140.5546875 C1.88078125 139.5646875 2.21078125 138.5746875 2.55078125 137.5546875 C2.55078125 138.8746875 2.55078125 140.1946875 2.55078125 141.5546875 C1.56078125 141.5546875 0.57078125 141.5546875 -0.44921875 141.5546875 C-0.44921875 142.2146875 -0.44921875 142.8746875 -0.44921875 143.5546875 C-5.39921875 143.5546875 -10.34921875 143.5546875 -15.44921875 143.5546875 C-15.546875 136.62109375 -15.546875 136.62109375 -15.44921875 134.5546875 C-15.11921875 134.2246875 -14.78921875 133.8946875 -14.44921875 133.5546875 C-14.31200909 132.18259086 -14.216228 130.80633341 -14.13671875 129.4296875 C-13.71136209 124.62524921 -12.69776109 120.13501382 -11.44921875 115.4921875 C-11.27092529 114.82493652 -11.09263184 114.15768555 -10.90893555 113.47021484 C-9.58775972 108.69322847 -9.58775972 108.69322847 -8.44921875 107.5546875 C-8.40841092 105.55510386 -8.40667519 103.55423496 -8.44921875 101.5546875 C-12.59680183 105.67736592 -16.74094715 109.80345977 -20.88208008 113.93261719 C-22.2883895 115.33392883 -23.69559897 116.73433786 -25.10375977 118.13378906 C-27.13931531 120.15707788 -29.17150406 122.18369878 -31.203125 124.2109375 C-32.13325157 125.13332214 -32.13325157 125.13332214 -33.08216858 126.07434082 C-36.86876417 129.86045981 -40.45789806 133.76826442 -43.95222473 137.82597351 C-53.26431782 148.57948715 -53.26431782 148.57948715 -58.44921875 150.5546875 C-61.82528941 150.77906314 -65.05729699 150.69036437 -68.44921875 150.5546875 C-68.11921875 146.9246875 -67.78921875 143.2946875 -67.44921875 139.5546875 C-68.76921875 139.5546875 -70.08921875 139.5546875 -71.44921875 139.5546875 C-70.68187006 133.18268413 -69.82986269 126.83118245 -68.82421875 120.4921875 C-68.69660156 119.53763672 -68.56898437 118.58308594 -68.4375 117.59960938 C-67.44154044 111.53597326 -65.97794826 108.26675719 -61.34448242 104.21508789 C-59.43154363 102.5392027 -57.85978035 100.78257869 -56.2265625 98.8359375 C-51.44456543 93.29593307 -46.2051871 88.2036524 -41.01171875 83.0546875 C-39.98348895 82.03148611 -38.95549249 81.00805017 -37.92773438 79.984375 C-35.43757537 77.50510751 -32.94429042 75.02901212 -30.44921875 72.5546875 C-31.56893066 72.5453418 -32.68864258 72.53599609 -33.84228516 72.52636719 C-38.01358191 72.48636589 -42.18414897 72.42057945 -46.35498047 72.34716797 C-48.15696814 72.31901697 -49.95907794 72.29777328 -51.76123047 72.28369141 C-54.35838073 72.26217995 -56.9540717 72.21548993 -59.55078125 72.1640625 C-60.35101715 72.16283386 -61.15125305 72.16160522 -61.97573853 72.16033936 C-67.23140607 72.02403825 -70.28514878 71.03886086 -74.44921875 67.5546875 C-77.94005861 62.31842771 -78.08276187 55.72904843 -77.44921875 49.5546875 C-76.78921875 47.9046875 -76.12921875 46.2546875 -75.44921875 44.5546875 C-70.49921875 44.5546875 -65.54921875 44.5546875 -60.44921875 44.5546875 C-60.44921875 45.8746875 -60.44921875 47.1946875 -60.44921875 48.5546875 C-59.78921875 48.5546875 -59.12921875 48.5546875 -58.44921875 48.5546875 C-58.44921875 49.2146875 -58.44921875 49.8746875 -58.44921875 50.5546875 C-45.90921875 50.2246875 -33.36921875 49.8946875 -20.44921875 49.5546875 C-20.44921875 50.2146875 -20.44921875 50.8746875 -20.44921875 51.5546875 C-27.70921875 51.8846875 -34.96921875 52.2146875 -42.44921875 52.5546875 C-34.85921875 52.8846875 -27.26921875 53.2146875 -19.44921875 53.5546875 C-19.11921875 50.5846875 -18.78921875 47.6146875 -18.44921875 44.5546875 C-18.77921875 44.2246875 -19.10921875 43.8946875 -19.44921875 43.5546875 C-19.77921875 44.8746875 -20.10921875 46.1946875 -20.44921875 47.5546875 C-20.44921875 46.2346875 -20.44921875 44.9146875 -20.44921875 43.5546875 C-21.72563232 43.57563477 -23.0020459 43.59658203 -24.31713867 43.61816406 C-29.06002552 43.69065181 -33.80286355 43.73651937 -38.54614258 43.77441406 C-40.59765868 43.79450949 -42.64911764 43.82179074 -44.70043945 43.85644531 C-47.651999 43.90505419 -50.60280023 43.92767702 -53.5546875 43.9453125 C-54.46945358 43.96595764 -55.38421967 43.98660278 -56.32670593 44.00787354 C-60.56987648 44.0093633 -62.82068926 43.95029165 -66.4855957 41.64355469 C-69.39682726 38.54663846 -70.37108702 36.83471801 -70.6328125 32.546875 C-70.40776954 27.65338758 -69.40116213 23.22615747 -68.19921875 18.4921875 C-67.99425781 17.62013672 -67.78929688 16.74808594 -67.578125 15.84960938 C-65.61804709 8.00335809 -62.85909466 2.87982628 -55.83721924 -1.37565613 C-51.45842608 -3.33704769 -47.04083994 -3.21153253 -42.30859375 -3.22265625 C-40.74168793 -3.25245323 -40.74168793 -3.25245323 -39.14312744 -3.28285217 C-36.94812021 -3.31986247 -34.75288943 -3.34525724 -32.55761719 -3.35961914 C-29.19502463 -3.38284146 -25.83464537 -3.44330086 -22.47265625 -3.50976562 C-20.33466631 -3.54123608 -18.19664419 -3.57060633 -16.05859375 -3.59765625 C-15.05439392 -3.61416733 -14.05019409 -3.63067841 -13.01556396 -3.64768982 C-11.61325531 -3.65373985 -11.61325531 -3.65373985 -10.18261719 -3.65991211 C-8.95306305 -3.67059975 -8.95306305 -3.67059975 -7.69866943 -3.6815033 C-4.47968507 -3.34351212 -2.28475343 -2.27859507 0 0 Z " fill="#916BD6" transform="translate(133.44921875,54.4453125)"/>
<path d="M0 0 C4.12606661 5.59687269 4.75131007 9.94516866 4.36328125 16.9296875 C3.55078125 19.5546875 3.55078125 19.5546875 1.921875 20.7109375 C-1.20772412 21.82460045 -3.88591813 21.74595351 -7.19921875 21.6796875 C-8.3696875 21.66164063 -9.54015625 21.64359375 -10.74609375 21.625 C-11.638125 21.60179688 -12.53015625 21.57859375 -13.44921875 21.5546875 C-13.77921875 19.9046875 -14.10921875 18.2546875 -14.44921875 16.5546875 C-26.32921875 16.2246875 -38.20921875 15.8946875 -50.44921875 15.5546875 C-50.77921875 17.8646875 -51.10921875 20.1746875 -51.44921875 22.5546875 C-50.29921387 22.53374023 -49.14920898 22.51279297 -47.96435547 22.49121094 C-43.68176819 22.41859687 -39.39923492 22.37281021 -35.11621094 22.33496094 C-33.26553179 22.31489411 -31.41491566 22.28763405 -29.56445312 22.25292969 C-26.89827898 22.20419317 -24.23294588 22.18166963 -21.56640625 22.1640625 C-20.74429657 22.14341736 -19.92218689 22.12277222 -19.07516479 22.10150146 C-12.81044271 22.099076 -9.36242358 23.82286077 -4.7277832 28.16894531 C-2.17658954 31.47043037 -1.08606953 33.63645991 -1.6171875 37.8515625 C-1.92618979 39.34266293 -2.26678349 40.8275244 -2.63671875 42.3046875 C-2.96499206 43.79916131 -3.29187263 45.29394191 -3.6171875 46.7890625 C-4.02904297 48.65304688 -4.02904297 48.65304688 -4.44921875 50.5546875 C-4.44921875 51.5446875 -4.44921875 52.5346875 -4.44921875 53.5546875 C-4.11921875 51.9046875 -3.78921875 50.2546875 -3.44921875 48.5546875 C-3.11921875 48.5546875 -2.78921875 48.5546875 -2.44921875 48.5546875 C-2.71862929 54.49518982 -3.29812609 59.97756165 -7.44921875 64.5546875 C-16.3688003 71.6614764 -25.33074808 71.69798236 -36.3046875 71.79296875 C-37.66259148 71.80507637 -37.66259148 71.80507637 -39.04792786 71.81742859 C-40.94623966 71.83115887 -42.844575 71.8419296 -44.74291992 71.84985352 C-46.67756422 71.86144212 -48.61217489 71.88200062 -50.54663086 71.91137695 C-53.36203419 71.95402375 -56.17650151 71.9702091 -58.9921875 71.98046875 C-59.85168503 71.99797684 -60.71118256 72.01548492 -61.59672546 72.03352356 C-67.03233767 72.01392428 -70.16075857 71.21179908 -74.44921875 67.5546875 C-77.94005861 62.31842771 -78.08276187 55.72904843 -77.44921875 49.5546875 C-76.78921875 47.9046875 -76.12921875 46.2546875 -75.44921875 44.5546875 C-70.49921875 44.5546875 -65.54921875 44.5546875 -60.44921875 44.5546875 C-60.44921875 45.8746875 -60.44921875 47.1946875 -60.44921875 48.5546875 C-59.78921875 48.5546875 -59.12921875 48.5546875 -58.44921875 48.5546875 C-58.44921875 49.2146875 -58.44921875 49.8746875 -58.44921875 50.5546875 C-45.90921875 50.2246875 -33.36921875 49.8946875 -20.44921875 49.5546875 C-20.44921875 50.2146875 -20.44921875 50.8746875 -20.44921875 51.5546875 C-27.70921875 51.8846875 -34.96921875 52.2146875 -42.44921875 52.5546875 C-34.85921875 52.8846875 -27.26921875 53.2146875 -19.44921875 53.5546875 C-19.11921875 50.5846875 -18.78921875 47.6146875 -18.44921875 44.5546875 C-18.77921875 44.2246875 -19.10921875 43.8946875 -19.44921875 43.5546875 C-19.77921875 44.8746875 -20.10921875 46.1946875 -20.44921875 47.5546875 C-20.44921875 46.2346875 -20.44921875 44.9146875 -20.44921875 43.5546875 C-21.72563232 43.57563477 -23.0020459 43.59658203 -24.31713867 43.61816406 C-29.06002552 43.69065181 -33.80286355 43.73651937 -38.54614258 43.77441406 C-40.59765868 43.79450949 -42.64911764 43.82179074 -44.70043945 43.85644531 C-47.651999 43.90505419 -50.60280023 43.92767702 -53.5546875 43.9453125 C-54.46945358 43.96595764 -55.38421967 43.98660278 -56.32670593 44.00787354 C-60.56987648 44.0093633 -62.82068926 43.95029165 -66.4855957 41.64355469 C-69.39682726 38.54663846 -70.37108702 36.83471801 -70.6328125 32.546875 C-70.40776954 27.65338758 -69.40116213 23.22615747 -68.19921875 18.4921875 C-67.99425781 17.62013672 -67.78929688 16.74808594 -67.578125 15.84960938 C-65.61804709 8.00335809 -62.85909466 2.87982628 -55.83721924 -1.37565613 C-51.45842608 -3.33704769 -47.04083994 -3.21153253 -42.30859375 -3.22265625 C-40.74168793 -3.25245323 -40.74168793 -3.25245323 -39.14312744 -3.28285217 C-36.94812021 -3.31986247 -34.75288943 -3.34525724 -32.55761719 -3.35961914 C-29.19502463 -3.38284146 -25.83464537 -3.44330086 -22.47265625 -3.50976562 C-20.33466631 -3.54123608 -18.19664419 -3.57060633 -16.05859375 -3.59765625 C-15.05439392 -3.61416733 -14.05019409 -3.63067841 -13.01556396 -3.64768982 C-11.61325531 -3.65373985 -11.61325531 -3.65373985 -10.18261719 -3.65991211 C-8.95306305 -3.67059975 -8.95306305 -3.67059975 -7.69866943 -3.6815033 C-4.47968507 -3.34351212 -2.28475343 -2.27859507 0 0 Z " fill="#FAFAFA" transform="translate(133.44921875,54.4453125)"/>
<path d="M0 0 C-0.33 0.66 -0.66 1.32 -1 2 C0.08941895 1.99363525 1.17883789 1.98727051 2.30126953 1.98071289 C6.36090745 1.96623301 10.41913759 1.99769609 14.47851562 2.04272461 C16.23204752 2.05582757 17.98571771 2.0566322 19.73925781 2.04467773 C22.26764787 2.02961071 24.79223361 2.05942417 27.3203125 2.09765625 C28.09867462 2.08340103 28.87703674 2.06914581 29.6789856 2.05445862 C33.06627064 2.14364378 35.17999049 2.32186485 37.84420776 4.52513123 C40.74979561 7.81422266 42.73549412 10.40355894 42.875 14.9375 C42.91367188 15.70964844 42.95234375 16.48179687 42.9921875 17.27734375 C42.99605469 18.13005859 42.99605469 18.13005859 43 19 C42.01 18.01 42.01 18.01 41 17 C38.30744103 32.42237942 35.64796367 47.84367172 33.25683594 63.31616211 C33.10504883 64.28690674 32.95326172 65.25765137 32.796875 66.2578125 C32.66635742 67.1048877 32.53583984 67.95196289 32.40136719 68.82470703 C32 71 32 71 31 74 C31.66 74.33 32.32 74.66 33 75 C29.2632157 77.49118953 27.25548181 77.2065226 22.8125 77.125 C21.54019531 77.10695313 20.26789063 77.08890625 18.95703125 77.0703125 C17.98121094 77.04710937 17.00539062 77.02390625 16 77 C14.87660283 71.00403677 15.0082538 66.08234776 16.48046875 60.13671875 C16.76172607 58.98260498 17.0429834 57.82849121 17.33276367 56.6394043 C17.55295166 55.76840088 17.77313965 54.89739746 18 54 C16.88963379 54.03552979 15.77926758 54.07105957 14.63525391 54.10766602 C10.52424134 54.2378213 6.41304565 54.36105649 2.30175781 54.48217773 C0.52077543 54.5356202 -1.26015131 54.59095129 -3.04101562 54.64819336 C-5.59753417 54.73004181 -8.15417445 54.8051453 -10.7109375 54.87890625 C-11.50994476 54.90594131 -12.30895203 54.93297638 -13.13217163 54.96083069 C-18.77225659 55.11387171 -18.77225659 55.11387171 -21 54 C-21.12375 55.299375 -21.2475 56.59875 -21.375 57.9375 C-22.62881098 69.25762195 -22.62881098 69.25762195 -25 74 C-24.34 74 -23.68 74 -23 74 C-22.505 72.515 -22.505 72.515 -22 71 C-22 72.32 -22 73.64 -22 75 C-22.99 75 -23.98 75 -25 75 C-25 75.66 -25 76.32 -25 77 C-29.95 77 -34.9 77 -40 77 C-40.09765625 70.06640625 -40.09765625 70.06640625 -40 68 C-39.505 67.505 -39.505 67.505 -39 67 C-38.86279034 65.62790336 -38.76700925 64.25164591 -38.6875 62.875 C-38.06146472 55.69646209 -35.97814507 48.90050607 -34 42 C-33.34 42 -32.68 42 -32 42 C-31.34 38.7 -30.68 35.4 -30 32 C-30.33 32 -30.66 32 -31 32 C-29.77419355 17.77419355 -29.77419355 17.77419355 -27 15 C-26.938125 14.29875 -26.87625 13.5975 -26.8125 12.875 C-25.28047077 7.45397348 -21.61379966 4.02097529 -16.9375 1.0625 C-11.6064546 -0.91553494 -5.58433067 -0.22673222 0 0 Z " fill="#FAFAFA" transform="translate(158,121)"/>
<path d="M0 0 C11.55 0 23.1 0 35 0 C34.34 3.96 33.68 7.92 33 12 C21.45 12 9.9 12 -2 12 C-1.34 8.04 -0.68 4.08 0 0 Z " fill="#000000" transform="translate(147,142)"/>
<path d="M0 0 C14.19 0 28.38 0 43 0 C42.34 3.3 41.68 6.6 41 10 C27.9522906 10.10264806 15.01109969 10.05750593 2 9 C2 8.67 2 8.34 2 8 C14.54 8 27.08 8 40 8 C38.82170415 6.59374449 38.82170415 6.59374449 35.48999023 6.88647461 C33.92951578 6.88663374 32.36903607 6.89232858 30.80859375 6.90234375 C29.98875504 6.9037587 29.16891632 6.90517365 28.32423401 6.90663147 C25.69528618 6.91224711 23.06642227 6.92480221 20.4375 6.9375 C18.65950643 6.94251299 16.88151154 6.94707624 15.10351562 6.95117188 C10.73564455 6.96222161 6.36783652 6.97949669 2 7 C2 6.34 2 5.68 2 5 C1.34 5 0.68 5 0 5 C0 3.35 0 1.7 0 0 Z " fill="#010101" transform="translate(73,98)"/>
<path d="M0 0 C0.89094864 -0.00307663 1.78189728 -0.00615326 2.69984436 -0.00932312 C3.65410812 -0.0021376 4.60837189 0.00504791 5.59155273 0.01245117 C7.07062355 0.0131385 7.07062355 0.0131385 8.57957458 0.01383972 C10.66162318 0.0168578 12.74366961 0.02473079 14.82568359 0.03710938 C18.01660132 0.05537102 21.20722881 0.05761894 24.39819336 0.05737305 C26.42098233 0.06228829 28.44376934 0.06811664 30.46655273 0.07495117 C31.42284073 0.076064 32.37912872 0.07717682 33.36439514 0.07832336 C34.69608986 0.08789314 34.69608986 0.08789314 36.0546875 0.09765625 C37.22572777 0.10337395 37.22572777 0.10337395 38.42042542 0.10920715 C40.46264648 0.24291992 40.46264648 0.24291992 43.46264648 1.24291992 C43.46264648 1.90291992 43.46264648 2.56291992 43.46264648 3.24291992 C42.58727234 3.24505745 42.58727234 3.24505745 41.69421387 3.24723816 C35.59376648 3.2669981 29.49431124 3.32140602 23.39428711 3.39550781 C21.12092214 3.4186361 18.8474508 3.43307132 16.57397461 3.43847656 C13.29661163 3.44780356 10.02090978 3.48887874 6.74389648 3.53588867 C5.73524536 3.53195602 4.72659424 3.52802338 3.68737793 3.52397156 C-2.94823001 3.65969105 -7.39677441 4.94758339 -12.53735352 9.24291992 C-16.1620825 13.5217932 -16.8942289 19.13796897 -18.09985352 24.49291992 C-18.51024274 26.31235449 -18.92783372 28.13018467 -19.35375977 29.94604492 C-19.53366455 30.746875 -19.71356934 31.54770508 -19.89892578 32.37280273 C-20.53735352 34.24291992 -20.53735352 34.24291992 -22.53735352 35.24291992 C-21.87610101 24.9365016 -20.88960152 13.35546046 -13.08813477 5.84838867 C-8.8957925 2.18404921 -5.59972868 -0.01021091 0 0 Z " fill="#737373" transform="translate(84.537353515625,48.757080078125)"/>
<path d="M0 0 C0.56227295 0.25193115 1.1245459 0.5038623 1.70385742 0.76342773 C0.99100586 1.46467773 0.2781543 2.16592773 -0.45629883 2.88842773 C-1.42388581 3.84662066 -2.39132571 4.80496213 -3.35864258 5.76342773 C-3.82463867 6.22104492 -4.29063477 6.67866211 -4.77075195 7.15014648 C-7.46460287 9.82567188 -10.01882254 12.56919158 -12.49145508 15.45092773 C-16.68067783 20.28663904 -21.1634595 24.81683169 -25.68652344 29.33911133 C-27.12896114 30.78377769 -28.56315822 32.23632628 -29.99731445 33.68920898 C-30.90674805 34.60057617 -31.81618164 35.51194336 -32.75317383 36.45092773 C-33.57793213 37.27979492 -34.40269043 38.10866211 -35.25244141 38.96264648 C-37.29614258 40.76342773 -37.29614258 40.76342773 -39.29614258 40.76342773 C-39.26520508 41.89780273 -39.23426758 43.03217773 -39.20239258 44.20092773 C-39.20239258 48.84269263 -39.92142681 53.21648182 -40.79614258 57.76342773 C-40.93922852 58.5381543 -41.08231445 59.31288086 -41.22973633 60.11108398 C-41.57886587 61.99638352 -41.93659573 63.88008712 -42.29614258 65.76342773 C-42.95614258 65.76342773 -43.61614258 65.76342773 -44.29614258 65.76342773 C-44.07932484 61.74856143 -43.7179381 57.76187711 -43.29614258 53.76342773 C-43.16981445 52.51432617 -43.04348633 51.26522461 -42.91333008 49.97827148 C-41.68660162 41.48620056 -39.62412597 36.80760224 -33.06176758 31.20483398 C-30.85181934 29.25396159 -29.0425072 27.39155021 -27.13598633 25.16967773 C-22.51589729 19.79548066 -17.58018688 14.74869083 -12.60864258 9.70092773 C-11.90421021 8.96821655 -11.90421021 8.96821655 -11.18554688 8.22070312 C-9.81402062 6.79474183 -8.42447422 5.3861812 -7.03442383 3.97827148 C-6.22013916 3.14416748 -5.40585449 2.31006348 -4.56689453 1.45068359 C-2.29614258 -0.23657227 -2.29614258 -0.23657227 0 0 Z " fill="#0D0913" transform="translate(109.296142578125,126.236572265625)"/>
<path d="M0 0 C0.69609375 0.05800781 1.3921875 0.11601563 2.109375 0.17578125 C3.346875 0.27890625 4.584375 0.38203125 5.859375 0.48828125 C5.859375 1.14828125 5.859375 1.80828125 5.859375 2.48828125 C4.869375 2.65328125 3.879375 2.81828125 2.859375 2.98828125 C-4.60465545 5.12516094 -9.55744359 12.8915192 -14.42578125 18.5546875 C-16.10066799 20.44322722 -17.84010087 22.21983773 -19.640625 23.98828125 C-21.95137948 26.25840708 -24.10964142 28.57952619 -26.203125 31.05078125 C-31.33521079 37.01668418 -37.03135851 42.46254691 -42.62597656 47.98950195 C-44.1361563 49.48385937 -45.63960171 50.98473193 -47.140625 52.48828125 C-46.70265172 47.55754986 -45.65694485 45.43367122 -42.015625 42.11328125 C-39.19983302 39.51184022 -36.58076139 36.87608406 -34.09765625 33.9609375 C-29.03490382 28.1018278 -23.45937307 22.73754985 -17.953125 17.30078125 C-15.81083657 15.18525948 -13.6720138 13.06631821 -11.53515625 10.9453125 C-10.81160698 10.23421074 -10.81160698 10.23421074 -10.07344055 9.50874329 C-7.86866818 7.31988617 -5.85606553 5.12530633 -3.93725586 2.67773438 C-2.140625 0.48828125 -2.140625 0.48828125 0 0 Z " fill="#0B0810" transform="translate(178.140625,53.51171875)"/>
<path d="M0 0 C0.99 0.33 1.98 0.66 3 1 C2.24904053 1.74572266 1.49808105 2.49144531 0.72436523 3.25976562 C-2.0943374 6.06019739 -4.90958919 8.86407745 -7.72387695 11.66894531 C-8.93617248 12.87625065 -10.1493687 14.08265234 -11.36352539 15.28808594 C-20.29483932 24.11232165 -20.29483932 24.11232165 -28.65698242 33.47021484 C-30 35 -30 35 -32.296875 36.8203125 C-35.24874295 40.59816184 -35.51075668 45.22746206 -36.25 49.875 C-36.42273438 50.85597656 -36.59546875 51.83695313 -36.7734375 52.84765625 C-37.58276855 57.60729364 -38.22998504 62.15388668 -38 67 C-39.98 67.495 -39.98 67.495 -42 68 C-41.23265131 61.62799663 -40.38064394 55.27649495 -39.375 48.9375 C-39.24738281 47.98294922 -39.11976562 47.02839844 -38.98828125 46.04492188 C-37.99206977 39.97975197 -36.52747019 36.71132275 -31.89331055 32.65844727 C-29.99111668 30.99221864 -28.43114622 29.24909488 -26.80859375 27.3125 C-21.8640588 21.58419337 -16.43156871 16.32517535 -11.0625 11 C-9.98609346 9.92862113 -8.90991986 8.85700818 -7.83398438 7.78515625 C-5.22533255 5.18740362 -2.61355529 2.59282038 0 0 Z " fill="#825FC1" transform="translate(104,126)"/>
<path d="M0 0 C0.66 0.33 1.32 0.66 2 1 C-3.9461194 9.39573375 -11.18801685 16.38483459 -18.5 23.5625 C-29.08852442 33.96178441 -29.08852442 33.96178441 -39 45 C-39.71603394 45.788302 -39.71603394 45.788302 -40.4465332 46.5925293 C-43.36665361 49.86859646 -44.88879133 52.75720326 -46 57 C-47.56454159 52.97985339 -46.46223974 49.30074319 -45.5625 45.25 C-45.41490234 44.55261719 -45.26730469 43.85523438 -45.11523438 43.13671875 C-44.75131967 41.4227979 -44.37670932 39.71115419 -44 38 C-43.34 38 -42.68 38 -42 38 C-41.67 39.65 -41.34 41.3 -41 43 C-40.23300781 42.16082031 -39.46601563 41.32164063 -38.67578125 40.45703125 C-30.43962955 31.5117398 -21.94347423 22.86219595 -13.28637695 14.32348633 C-8.62697317 9.70960419 -4.17693937 5.05629502 0 0 Z " fill="#8366B6" transform="translate(175,52)"/>
<path d="M0 0 C0.33 0 0.66 0 1 0 C2.03968625 6.09888543 1.79660175 11.02405356 0.63671875 17.07421875 C0.40865288 18.34275444 0.40865288 18.34275444 0.17597961 19.63691711 C-0.3091443 22.32259514 -0.81023781 25.00497978 -1.3125 27.6875 C-1.79926475 30.34594714 -2.28269225 33.0049862 -2.76583862 35.66409302 C-3.07831667 37.38218741 -3.39219786 39.10002726 -3.70755005 40.81759644 C-4.93449328 47.52748077 -6.02400889 54.24855632 -7 61 C-7.99 60.67 -8.98 60.34 -10 60 C-8.53009527 49.54530259 -6.98616264 39.10271696 -5.39550781 28.66577148 C-5.12997471 26.91800637 -4.86632845 25.16995363 -4.60449219 23.42163086 C-4.21988195 20.85462 -3.82932058 18.28857522 -3.4375 15.72265625 C-3.322854 14.94962662 -3.20820801 14.17659698 -3.09008789 13.38014221 C-2.38061191 8.78588868 -1.36882908 4.44392124 0 0 Z " fill="#7A7A7A" transform="translate(199,135)"/>
<path d="M0 0 C0.33 0.99 0.66 1.98 1 3 C2.32 3 3.64 3 5 3 C4.33057553 9.99250316 3.58629547 16.97059366 2.6875 23.9375 C2.58244141 24.86884766 2.47738281 25.80019531 2.36914062 26.75976562 C2.25119141 27.65244141 2.13324219 28.54511719 2.01171875 29.46484375 C1.91334717 30.265271 1.81497559 31.06569824 1.71362305 31.89038086 C0.78787051 34.62709917 -0.59764687 35.49099639 -3 37 C-3.66 36.67 -4.32 36.34 -5 36 C-4.87447754 35.41009277 -4.74895508 34.82018555 -4.61962891 34.21240234 C-3.27316743 27.71106197 -2.25229392 21.20470438 -1.375 14.625 C-1.2409375 13.65433594 -1.106875 12.68367188 -0.96875 11.68359375 C-0.43386563 7.72654104 0 4.00326028 0 0 Z " fill="#8460C3" transform="translate(188,56)"/>
<path d="M0 0 C0.66 0.33 1.32 0.66 2 1 C1.34 4.63 0.68 8.26 0 12 C11.55 12 23.1 12 35 12 C35.33 8.7 35.66 5.4 36 2 C36.99 1.34 37.98 0.68 39 0 C38.85795259 1.58367747 38.71119847 3.16693318 38.5625 4.75 C38.48128906 5.63171875 38.40007812 6.5134375 38.31640625 7.421875 C38.03709315 9.69775952 37.57793339 11.78698816 37 14 C35.85934082 13.99476318 34.71868164 13.98952637 33.54345703 13.98413086 C29.32048321 13.96606131 25.09751282 13.95456081 20.87451172 13.94506836 C19.04507879 13.94003263 17.21564991 13.93320373 15.38623047 13.92456055 C12.76008102 13.91246176 10.13398468 13.90676417 7.5078125 13.90234375 C6.68693146 13.89718246 5.86605042 13.89202118 5.02029419 13.88670349 C0.87788156 13.77648126 0.87788156 13.77648126 -3 15 C-2.22095672 4.44191344 -2.22095672 4.44191344 0 0 Z " fill="#888888" transform="translate(145,142)"/>
<path d="M0 0 C0.99 0 1.98 0 3 0 C2.67 2.31 2.34 4.62 2 7 C14.87 7 27.74 7 41 7 C40.67 7.66 40.34 8.32 40 9 C25.9902386 9.99058919 12.04136926 10.1162069 -2 10 C-1.125 2.25 -1.125 2.25 0 0 Z " fill="#848484" transform="translate(80,70)"/>
<path d="M0 0 C-0.99 1.485 -0.99 1.485 -2 3 C-4.609375 3.37109375 -4.609375 3.37109375 -7.75 3.4375 C-12.96394967 3.75557588 -16.00569767 4.40512791 -20 8 C-21.35156675 9.65191491 -22.68962066 11.31522656 -24 13 C-24.66 13 -25.32 13 -26 13 C-26.33 13.66 -26.66 14.32 -27 15 C-26.6777562 9.68297728 -23.76479527 6.47321659 -20 3 C-13.72044782 -0.97277791 -7.24865504 -0.29430629 0 0 Z " fill="#C5B0EB" transform="translate(158,121)"/>
<path d="M0 0 C0.66 0.33 1.32 0.66 2 1 C-3.09400158 7.96071482 -8.78464535 14.03129875 -14.9375 20.0625 C-15.81212891 20.92810547 -16.68675781 21.79371094 -17.58789062 22.68554688 C-19.72071405 24.79506075 -21.85809096 26.89971873 -24 29 C-24.66 28.34 -25.32 27.68 -26 27 C-25.42556152 26.43079834 -24.85112305 25.86159668 -24.25927734 25.27514648 C-21.62849048 22.66529778 -19.00172405 20.05143749 -16.375 17.4375 C-15.47136719 16.54224609 -14.56773437 15.64699219 -13.63671875 14.72460938 C-8.86893107 9.97422238 -4.28613313 5.19035059 0 0 Z " fill="#8460C3" transform="translate(175,52)"/>
<path d="M0 0 C0.66 0.33 1.32 0.66 2 1 C1.34 3.97 0.68 6.94 0 10 C-13.0477094 10.10264806 -25.98890031 10.05750593 -39 9 C-39 8.67 -39 8.34 -39 8 C-26.46 8 -13.92 8 -1 8 C-1.495 5.525 -1.495 5.525 -2 3 C-1.34 2.01 -0.68 1.02 0 0 Z " fill="#636363" transform="translate(114,98)"/>
<path d="M0 0 C0.66 0 1.32 0 2 0 C1.56336197 6.91726562 0.97866231 13.80840452 0.125 20.6875 C-0.01679688 21.84636719 -0.15859375 23.00523438 -0.3046875 24.19921875 C-1 27 -1 27 -4 29 C-3.31349156 22.44817672 -2.43589612 15.94857133 -1.4375 9.4375 C-1.29892578 8.52419922 -1.16035156 7.61089844 -1.01757812 6.66992188 C-0.6799705 4.44636821 -0.3407537 2.22307332 0 0 Z " fill="#0E0A14" transform="translate(188,62)"/>
<path d="M0 0 C-1.33534276 2.94113469 -2.82464881 5.10845169 -5.0390625 7.453125 C-5.61914062 8.071875 -6.19921875 8.690625 -6.796875 9.328125 C-7.40015625 9.96234375 -8.0034375 10.5965625 -8.625 11.25 C-9.23601562 11.8996875 -9.84703125 12.549375 -10.4765625 13.21875 C-11.98028074 14.81645063 -13.48815737 16.40999149 -15 18 C-15.66 17.34 -16.32 16.68 -17 16 C-15.06327014 13.89511995 -13.12564859 11.79107304 -11.1875 9.6875 C-10.64029297 9.09259766 -10.09308594 8.49769531 -9.52929688 7.88476562 C-8.99755859 7.30791016 -8.46582031 6.73105469 -7.91796875 6.13671875 C-7.43094482 5.60780029 -6.9439209 5.07888184 -6.44213867 4.53393555 C-5.96623291 4.02773682 -5.49032715 3.52153809 -5 3 C-4.48606689 2.44030518 -3.97213379 1.88061035 -3.44262695 1.30395508 C-2 0 -2 0 0 0 Z " fill="#7B59B6" transform="translate(88,144)"/>
<path d="M0 0 C2 3 2 3 1.89160156 4.9453125 C1.7262793 5.66460937 1.56095703 6.38390625 1.390625 7.125 C1.21273437 7.91390625 1.03484375 8.7028125 0.8515625 9.515625 C0.65304688 10.33546875 0.45453125 11.1553125 0.25 12 C0.06695312 12.81984375 -0.11609375 13.6396875 -0.3046875 14.484375 C-1.17460027 18.23357651 -1.83072994 20.74609492 -4 24 C-4.96998805 20.92186992 -4.98169275 18.87526453 -4.2578125 15.7421875 C-4.07863281 14.95199219 -3.89945312 14.16179687 -3.71484375 13.34765625 C-3.52019531 12.53167969 -3.32554688 11.71570313 -3.125 10.875 C-2.84462891 9.63943359 -2.84462891 9.63943359 -2.55859375 8.37890625 C-1.16071429 2.32142857 -1.16071429 2.32142857 0 0 Z " fill="#8E8E8E" transform="translate(124,163)"/>
<path d="M0 0 C0.99 0.33 1.98 0.66 3 1 C2.54884201 3.41820683 2.08938045 5.83432863 1.625 8.25 C1.49867188 8.93191406 1.37234375 9.61382812 1.2421875 10.31640625 C0.56093633 13.82484976 -0.16853415 16.91039673 -2 20 C-2.66 20 -3.32 20 -4 20 C-2.68 13.4 -1.36 6.8 0 0 Z " fill="#7B7B7B" transform="translate(137,175)"/>
<path d="M0 0 C0.66 0 1.32 0 2 0 C2 0.66 2 1.32 2 2 C14.54 1.67 27.08 1.34 40 1 C40 1.66 40 2.32 40 3 C26.47 3.33 12.94 3.66 -1 4 C-0.67 2.68 -0.34 1.36 0 0 Z " fill="#BCBCBC" transform="translate(73,103)"/>
<path d="M0 0 C2 2 2 2 2.046875 3.99609375 C1.94890625 4.80175781 1.8509375 5.60742188 1.75 6.4375 C1.64300781 7.32050781 1.53601563 8.20351562 1.42578125 9.11328125 C0.73954495 13.76583744 -0.09633352 18.38515952 -1 23 C-1.66 23 -2.32 23 -3 23 C-2.48351265 15.21191437 -1.55123466 7.65074958 0 0 Z " fill="#241A36" transform="translate(68,169)"/>
<path d="M0 0 C4.95 0 9.9 0 15 0 C14.67 0.66 14.34 1.32 14 2 C9.71 2 5.42 2 1 2 C0.67 4.31 0.34 6.62 0 9 C-1.125 7.3125 -1.125 7.3125 -2 5 C-1.34 3.35 -0.68 1.7 0 0 Z " fill="#838383" transform="translate(58,99)"/>
<path d="M0 0 C2.41458728 3.62188093 1.87358159 5.14129512 1.109375 9.27148438 C0.86960938 10.46741211 0.86960938 10.46741211 0.625 11.6875 C-0.52559131 17.57209198 -1.17845919 22.99416184 -1 29 C-1.99 28.67 -2.98 28.34 -4 28 C-2.66666667 18.66666667 -1.33333333 9.33333333 0 0 Z " fill="#494949" transform="translate(193,167)"/>
<path d="M0 0 C1.26823485 3.65393537 0.75715321 6.49070026 0.0625 10.25 C-0.13214844 11.32765625 -0.32679688 12.4053125 -0.52734375 13.515625 C-0.68332031 14.33546875 -0.83929688 15.1553125 -1 16 C-1.99 16 -2.98 16 -4 16 C-3.71861942 13.70704764 -3.4245814 11.41564544 -3.125 9.125 C-2.96257812 7.84882813 -2.80015625 6.57265625 -2.6328125 5.2578125 C-2 2 -2 2 0 0 Z " fill="#828282" transform="translate(177,175)"/>
<path d="M0 0 C2.05078125 0.03255208 4.1015625 0.06510417 6.15234375 0.09765625 C6.15234375 0.75765625 6.15234375 1.41765625 6.15234375 2.09765625 C-1.27622768 4.24051339 -1.27622768 4.24051339 -4.84765625 5.09765625 C-2.44354091 0.12915121 -2.44354091 0.12915121 0 0 Z " fill="#110C1A" transform="translate(177.84765625,53.90234375)"/>
<path d="M0 0 C0.66 0.33 1.32 0.66 2 1 C0.92338719 2.4425402 -0.16160103 3.87883161 -1.25 5.3125 C-1.85328125 6.11300781 -2.4565625 6.91351563 -3.078125 7.73828125 C-4.90270136 9.88549612 -6.68297046 11.41601299 -9 13 C-9 8.86218946 -7.28490393 7.79080004 -4.5 4.8125 C-3.6646875 3.91144531 -2.829375 3.01039062 -1.96875 2.08203125 C-0.99421875 1.05142578 -0.99421875 1.05142578 0 0 Z " fill="#7958B4" transform="translate(175,52)"/>
<path d="M0 0 C2 3 2 3 1.86328125 5.375 C1.68152344 6.24125 1.49976563 7.1075 1.3125 8 C1.14363281 8.86625 0.97476563 9.7325 0.80078125 10.625 C-0.05593347 13.16589048 -0.96732625 14.29770573 -3 16 C-2.52013969 10.43109483 -1.70084819 5.32932432 0 0 Z " fill="#CDBCED" transform="translate(130,137)"/>
<path d="M0 0 C1.75589819 2.62748534 2.02746832 3.79041672 1.609375 6.98046875 C1.32578125 8.03878906 1.0421875 9.09710938 0.75 10.1875 C0.34007813 11.78658203 0.34007813 11.78658203 -0.078125 13.41796875 C-1 16 -1 16 -3 17 C-2.54775239 11.08507728 -1.8417395 5.64800112 0 0 Z " fill="#9B9B9B" transform="translate(65,67)"/>
<path d="M0 0 C2.36574234 3.5486135 2.10865265 4.5764525 1.625 8.6875 C1.51414063 9.68136719 1.40328125 10.67523438 1.2890625 11.69921875 C1.19367188 12.45847656 1.09828125 13.21773437 1 14 C0.01 13.67 -0.98 13.34 -2 13 C-1.85966889 11.02043559 -1.7125877 9.04134859 -1.5625 7.0625 C-1.48128906 5.96035156 -1.40007812 4.85820313 -1.31640625 3.72265625 C-1 1 -1 1 0 0 Z " fill="#848484" transform="translate(136,60)"/>
<path d="M0 0 C0.33 0 0.66 0 1 0 C1.33278764 6.81598387 1.24201565 11.92122066 -2 18 C-3.23853632 14.38905609 -2.79209453 11.59428048 -2.125 7.875 C-1.85042969 6.29332031 -1.85042969 6.29332031 -1.5703125 4.6796875 C-1 2 -1 2 0 0 Z " fill="#7A7486" transform="translate(131,91)"/>
<path d="M0 0 C0.33 0.99 0.66 1.98 1 3 C2.32 3 3.64 3 5 3 C4.67 6.3 4.34 9.6 4 13 C2 10 2 10 2 6 C1.34 5.67 0.68 5.34 0 5 C0 3.35 0 1.7 0 0 Z " fill="#7454AC" transform="translate(188,56)"/>
<path d="M0 0 C0.33 0 0.66 0 1 0 C0.63495936 5.66442374 -0.0554321 10.00703705 -3 15 C-3.66 14.34 -4.32 13.68 -5 13 C-4.54625 11.96875 -4.0925 10.9375 -3.625 9.875 C-2.23292639 6.63562492 -1.06619122 3.36260307 0 0 Z " fill="#CEBEEB" transform="translate(130,103)"/>
<path d="M0 0 C0.66 0.33 1.32 0.66 2 1 C1.51171875 7.0546875 1.51171875 7.0546875 1 9 C0.01 9.66 -0.98 10.32 -2 11 C-1.85957123 9.35369672 -1.71250671 7.70795821 -1.5625 6.0625 C-1.48128906 5.14597656 -1.40007812 4.22945312 -1.31640625 3.28515625 C-1 1 -1 1 0 0 Z " fill="#6D6D6D" transform="translate(145,142)"/>
<path d="M0 0 C0.99 0.33 1.98 0.66 3 1 C2.6875 4.375 2.6875 4.375 2 8 C1.01 8.66 0.02 9.32 -1 10 C-0.67 6.7 -0.34 3.4 0 0 Z " fill="#6C6C6C" transform="translate(137,175)"/>
<path d="M0 0 C-0.28875 0.53625 -0.5775 1.0725 -0.875 1.625 C-2.16711808 4.35280484 -3.08558592 7.12612718 -4 10 C-4.33 10 -4.66 10 -5 10 C-5.3669579 3.51707705 -5.3669579 3.51707705 -3.625 1.0625 C-2 0 -2 0 0 0 Z " fill="#8863C9" transform="translate(72,161)"/>
<path d="M0 0 C1.09658936 3.28976808 0.79953138 4.71303767 0 8 C-0.66 8 -1.32 8 -2 8 C-2.33 8.99 -2.66 9.98 -3 11 C-2.8864371 9.35333797 -2.75882619 7.70763918 -2.625 6.0625 C-2.55539063 5.14597656 -2.48578125 4.22945312 -2.4140625 3.28515625 C-2.27742188 2.53105469 -2.14078125 1.77695313 -2 1 C-1.34 0.67 -0.68 0.34 0 0 Z " fill="#8C8992" transform="translate(128,151)"/>
<path d="M0 0 C1.34771696 2.21976911 2.04398726 3.50147776 1.8125 6.125 C1 8 1 8 -2 10 C-2.66 9.67 -3.32 9.34 -4 9 C-3.67 8.01 -3.34 7.02 -3 6 C-2.34 6 -1.68 6 -1 6 C-0.67 4.02 -0.34 2.04 0 0 Z " fill="#7E5CBC" transform="translate(187,83)"/>
<path d="M0 0 C0.99 0.33 1.98 0.66 3 1 C-0.465 3.97 -0.465 3.97 -4 7 C-4 4 -4 4 -2 1.8125 C-1.34 1.214375 -0.68 0.61625 0 0 Z " fill="#7F5DBD" transform="translate(104,126)"/>
<path d="M0 0 C2 2 2 2 2.3125 4.5 C2.209375 5.325 2.10625 6.15 2 7 C1.01 7.66 0.02 8.32 -1 9 C-0.67 6.03 -0.34 3.06 0 0 Z " fill="#7958B3" transform="translate(66,169)"/>
</svg>
